<svg xmlns="http://www.w3.org/2000/svg" version="1.1" xmlns:xlink="http://www.w3.org/1999/xlink" xmlns:svgjs="http://svgjs.dev/svgjs" width="2000" height="797" viewBox="0 0 2000 797"><g transform="matrix(1,0,0,1,-1.2112696095522324,-0.1260892067393229)"><svg viewBox="0 0 396 158" data-background-color="#ffffff" preserveAspectRatio="xMidYMid meet" height="797" width="2000" xmlns="http://www.w3.org/2000/svg" xmlns:xlink="http://www.w3.org/1999/xlink"><g id="tight-bounds" transform="matrix(1,0,0,1,0.24008861730862918,0.02499635466099903)"><svg viewBox="0 0 395.52 157.950007290678" height="157.950007290678" width="395.52"><g><svg viewBox="0 0 395.52 157.950007290678" height="157.950007290678" width="395.52"><g><svg viewBox="0 0 395.52 157.950007290678" height="157.950007290678" width="395.52"><g id="textblocktransform"><svg viewBox="0 0 395.52 157.950007290678" height="157.950007290678" width="395.52" id="textblock"><g><svg viewBox="0 0 395.52 121.33127652123181" height="121.33127652123181" width="395.52"><path d="M394.594 26.023C392.735 13.429 387.435 9.928 387.435 9.928 371.165-3.044 350.86-0.248 332.619 1.616 300.414 1.691 268.339 4.462 236.208 5.948 168.767 6.175 100.749 2.447 33.643 11.641 27.339 14.462-6.54 12.195 1.121 27.635 3.129 34.058 10.456 41.187 10.232 47.081 11.236 48.113 12.631 45.746 13.226 47.232 15.309 51.237 18.711 49.348 21.501 51.715 17.614 58.038 20.403 63.302 23.062 68.818 18.377 70.254 12.371 69.574 9.675 74.334 9.396 77.785 7.89 77.13 6.235 76.979 5.026 76.878 2.59 77.256 2.999 78.339 4.394 82.042-1.594 84.183 2.162 87.81-0.422 91.739 3.948 95.14 3.353 99.397 3.278 100.253 3.687 100.984 4.338 101.185 7.22 102.268 3.018 104.384 3.464 106.676 33.029 122.343 65.104 111.512 95.394 118.716 103.259 113.678 97.346 120.505 100.489 119.447 102.943 118.212 104.728 123.326 107.499 120.429 107.927 119.598 107.276 117.633 108.8 118.011 109.6 118.212 110.307 118.162 110.418 117.003 110.586 115.265 109.117 116.348 108.726 115.442 112.947 110.857 111.906 121.764 115.866 121.311 115.68 119.976 114.528 118.061 116.889 118.313 119.232 116.399 119.306 114.812 121.389 119.119 121.463 120.051 121.835 120.706 122.43 121.159 128.938 116.474 135.409 122.822 142.233 120.706 146.417 118.389 150.433 121.965 154.672 121.084 156.16 120.379 157.666 119.119 159.098 121.235 176.632 121.688 195.319 119.799 211.943 121.311 256.364 118.489 303.836 122.469 350.674 118.741 361.719 117.306 373.192 115.265 383.958 113.628 383.958 113.628 392.679 109.145 392.679 88.994S394.538 71.362 394.817 55.317C395.096 39.272 396.398 38.617 394.538 26.023Z" opacity="1" fill="#4a15c2" data-fill-palette-color="tertiary"></path><g transform="matrix(1,0,0,1,55.76832,26.068561146666667)"><svg width="283.98335999999995" viewBox="1 -35.5 147.18 35.87" height="69.19415422789848" data-palette-color="#ffffff"><path d="M9.94-35.5L9.94-35.5Q14.53-35.5 17.09-32.15L17.09-32.15Q17.33-31.84 17.33-31.4L17.33-31.4Q17.33-30.54 16.61-29.59 15.89-28.64 15.41-28.64L15.41-28.64Q15.26-28.64 15.19-28.74L15.19-28.74Q13.01-31.37 10.01-31.37L10.01-31.37Q8.33-31.37 7.3-29.94 6.27-28.52 6.27-26.46L6.27-26.46Q6.27-24.54 7.15-23.32 8.03-22.09 9.67-21.04L9.67-21.04 12.77-19.04Q17.68-15.87 17.68-9.77L17.68-9.77Q17.68-5.3 15.41-2.47 13.13 0.37 9.3 0.37L9.3 0.37Q4.13 0.37 1.15-4.1L1.15-4.1Q1-4.32 1-4.66L1-4.66Q1-5.52 1.7-6.53 2.39-7.54 3.03-7.54L3.03-7.54Q3.27-7.54 3.47-7.32L3.47-7.32Q6.2-3.83 9.3-3.83L9.3-3.83Q11.21-3.83 12.28-5.31 13.35-6.79 13.35-9.06L13.35-9.06Q13.35-11.11 12.5-12.39 11.65-13.67 9.89-14.82L9.89-14.82 6.76-16.92Q5.74-17.6 4.98-18.33 4.22-19.07 3.53-20.1 2.83-21.14 2.45-22.55 2.08-23.95 2.08-25.63L2.08-25.63Q2.08-30.03 4.21-32.76 6.35-35.5 9.94-35.5ZM23.73 0L20.6 0Q20.24 0 20.24-0.71L20.24-0.71 20.24-1.12Q20.24-1.44 20.26-1.54L20.26-1.54 25.75-33.89Q25.95-35.06 26.66-35.11L26.66-35.11 31.61-35.11Q32.3-35.06 32.49-33.89L32.49-33.89 37.89-1.54Q37.89-1.46 37.92-1.27 37.96-1.07 37.97-0.93 37.99-0.78 37.99-0.68L37.99-0.68Q37.99 0 37.57 0L37.57 0 33.54 0Q32.96 0 32.79-1L32.79-1 31.88-7.23Q31.81-7.76 31.61-7.76L31.61-7.76 25.71-7.76Q25.53-7.76 25.44-7.2L25.44-7.2 24.41-1.03Q24.31-0.42 24.17-0.21 24.02 0 23.73 0L23.73 0ZM26.41-10.82L26.41-10.82 31.39-10.82Q31.56-10.82 31.56-11.25L31.56-11.25Q31.56-11.4 31.52-11.47L31.52-11.47 29.1-30.3Q29.07-30.47 29.03-30.47L29.03-30.47Q28.95-30.47 28.93-30.32L28.93-30.32 26.07-11.5Q26.05-11.33 26.05-11.28L26.05-11.28Q26.05-10.82 26.41-10.82ZM45.43 0L42.48 0Q42.16 0 42-0.24 41.84-0.49 41.84-1.22L41.84-1.22 41.84-33.81Q41.84-35.11 42.48-35.11L42.48-35.11 46.19-35.11Q46.7-35.11 47.07-34.16L47.07-34.16 55.34-11.91Q55.39-11.74 55.49-12.01L55.49-12.01 55.51-12.23 55.51-33.81Q55.51-35.11 56.17-35.11L56.17-35.11 59.08-35.11Q59.69-35.11 59.69-33.81L59.69-33.81 59.69-1.12Q59.69-0.39 59.54-0.18 59.39 0.02 59.08 0.02L59.08 0.02 56.44 0.02Q56.2 0.02 55.92-0.27 55.63-0.56 55.46-1L55.46-1 46.26-25.02Q46.16-25.22 46.11-24.9L46.11-24.9Q46.09-24.83 46.09-24.73L46.09-24.73 46.09-1.22Q46.09-0.49 45.93-0.24 45.77 0 45.43 0L45.43 0ZM72.43 0L68.84 0Q68.55 0 68.39-0.23 68.23-0.46 68.23-1.17L68.23-1.17 68.23-30.57Q68.23-31.18 67.96-31.18L67.96-31.18 63.71-31.18Q63.47-31.18 63.36-31.21 63.25-31.25 63.16-31.46 63.08-31.67 63.08-32.1L63.08-32.1 63.08-34.03Q63.08-34.69 63.22-34.9 63.37-35.11 63.71-35.11L63.71-35.11 77.51-35.11Q77.82-35.11 77.97-34.9 78.12-34.69 78.12-34.03L78.12-34.03 78.12-32.1Q78.12-31.49 77.98-31.34 77.85-31.18 77.51-31.18L77.51-31.18 73.33-31.18Q73.06-31.18 73.06-30.57L73.06-30.57 73.06-1.17Q73.06-0.44 72.91-0.22 72.75 0 72.43 0L72.43 0ZM83.34 0L80.21 0Q79.85 0 79.85-0.71L79.85-0.71 79.85-1.12Q79.85-1.44 79.87-1.54L79.87-1.54 85.37-33.89Q85.56-35.06 86.27-35.11L86.27-35.11 91.23-35.11Q91.91-35.06 92.1-33.89L92.1-33.89 97.5-1.54Q97.5-1.46 97.54-1.27 97.57-1.07 97.59-0.93 97.6-0.78 97.6-0.68L97.6-0.68Q97.6 0 97.18 0L97.18 0 93.15 0Q92.57 0 92.4-1L92.4-1 91.49-7.23Q91.42-7.76 91.23-7.76L91.23-7.76 85.32-7.76Q85.15-7.76 85.05-7.2L85.05-7.2 84.02-1.03Q83.93-0.42 83.78-0.21 83.63 0 83.34 0L83.34 0ZM86.03-10.82L86.03-10.82 91.01-10.82Q91.18-10.82 91.18-11.25L91.18-11.25Q91.18-11.4 91.13-11.47L91.13-11.47 88.71-30.3Q88.69-30.47 88.64-30.47L88.64-30.47Q88.56-30.47 88.54-30.32L88.54-30.32 85.68-11.5Q85.66-11.33 85.66-11.28L85.66-11.28Q85.66-10.82 86.03-10.82ZM105.65 0L102.06 0Q101.75 0 101.6-0.21 101.45-0.42 101.45-1.1L101.45-1.1 101.45-33.98Q101.45-34.72 101.6-34.91 101.75-35.11 102.06-35.11L102.06-35.11 110.27-35.11Q111.8-35.11 112.89-34.94 113.98-34.77 115.12-34.2 116.27-33.64 116.97-32.64 117.66-31.64 118.11-29.91 118.57-28.17 118.57-25.73L118.57-25.73Q118.57-23.9 118.3-22.55 118.03-21.19 117.49-20.35 116.96-19.51 116.33-19.02 115.71-18.53 114.83-18.19L114.83-18.19Q114.76-18.12 114.76-18.04 114.76-17.97 114.83-17.92L114.83-17.92Q115.71-17.5 116.26-17.07 116.81-16.63 117.37-15.78 117.93-14.94 118.22-13.5 118.52-12.06 118.59-9.96L118.59-9.96Q118.69-8.06 118.69-1.22L118.69-1.22Q118.69 0 118.25 0L118.25 0Q114.47 0.02 114.37 0.02L114.37 0.02Q113.98 0.02 113.95-1.07L113.95-1.07Q113.95-1.25 113.81-6.54 113.66-11.84 113.49-12.65L113.49-12.65Q113.42-13.65 113.09-14.32 112.76-14.99 112.23-15.3 111.71-15.6 111.19-15.71 110.68-15.82 110.02-15.82L110.02-15.82 106.53-15.82Q106.26-15.82 106.26-15.28L106.26-15.28 106.26-1.1Q106.26-0.42 106.12-0.21 105.97 0 105.65 0L105.65 0ZM106.51-19.63L106.51-19.63 109.66-19.63Q113.73-19.63 113.73-25.56L113.73-25.56Q113.73-28.71 112.62-29.97 111.51-31.23 108.9-31.23L108.9-31.23 106.53-31.23Q106.26-31.23 106.26-30.74L106.26-30.74 106.26-20.29Q106.26-19.63 106.51-19.63ZM125.96 0L122.84 0Q122.47 0 122.47-0.71L122.47-0.71 122.47-1.12Q122.47-1.44 122.49-1.54L122.49-1.54 127.99-33.89Q128.18-35.06 128.89-35.11L128.89-35.11 133.85-35.11Q134.53-35.06 134.73-33.89L134.73-33.89 140.12-1.54Q140.12-1.46 140.16-1.27 140.19-1.07 140.21-0.93 140.22-0.78 140.22-0.68L140.22-0.68Q140.22 0 139.8 0L139.8 0 135.78 0Q135.19 0 135.02-1L135.02-1 134.12-7.23Q134.04-7.76 133.85-7.76L133.85-7.76 127.94-7.76Q127.77-7.76 127.67-7.2L127.67-7.2 126.65-1.03Q126.55-0.42 126.4-0.21 126.25 0 125.96 0L125.96 0ZM128.65-10.82L128.65-10.82 133.63-10.82Q133.8-10.82 133.8-11.25L133.8-11.25Q133.8-11.4 133.75-11.47L133.75-11.47 131.33-30.3Q131.31-30.47 131.26-30.47L131.26-30.47Q131.19-30.47 131.16-30.32L131.16-30.32 128.31-11.5Q128.28-11.33 128.28-11.28L128.28-11.28Q128.28-10.82 128.65-10.82ZM147.52 0L144.17 0Q143.54 0 143.54-1.25L143.54-1.25 143.54-4.96Q143.54-6.18 144.17-6.18L144.17-6.18 147.52-6.18Q148.18-6.18 148.18-4.96L148.18-4.96 148.18-1.25Q148.18 0 147.52 0L147.52 0Z" opacity="1" transform="matrix(1,0,0,1,0,0)" fill="#ffffff" class="wordmark-text-0" data-fill-palette-color="quaternary" id="text-0"></path></svg></g></svg></g><g transform="matrix(1,0,0,1,75.54432,137.6663556747372)"><svg viewBox="0 0 244.43135999999998 20.283651615940812" height="20.283651615940812" width="244.43135999999998"><g transform="matrix(1,0,0,1,0,0)"><svg width="244.43135999999998" viewBox="2.25 -36.3 594.64 49.349999999999994" height="20.283651615940812" data-palette-color="#5e2f8d"><path d="M2.25 0L6.75-34.2 9.65-34.2 5.5-2.8 22.35-2.8 21.95 0 2.25 0ZM34.75 0.5Q30.35 0.5 28-2.48 25.65-5.45 25.65-10.05L25.65-10.05Q25.65-11.25 25.8-12.45L25.8-12.45Q26.3-16.25 28.12-19.2 29.95-22.15 32.85-23.78 35.75-25.4 39.35-25.4L39.35-25.4Q42.05-25.4 45.2-24.95L45.2-24.95 48.15-24.95 45.8-7.1Q45.7-5.9 45.7-5.35L45.7-5.35Q45.7-2.7 46.9-1.2L46.9-1.2 44.9 0.35Q44-0.5 43.35-1.98 42.7-3.45 42.8-4.25L42.8-4.25Q41.35-2.15 39.17-0.83 37 0.5 34.75 0.5L34.75 0.5ZM34.9-2.2Q37.2-2.2 39.07-3.33 40.95-4.45 42.05-6.35L42.05-6.35Q43.05-7.8 43.2-9.5L43.2-9.5 45-22.5 42-22.6 39.1-22.7Q34.8-22.7 32.05-19.78 29.3-16.85 28.7-12.25L28.7-12.25Q28.55-11.15 28.55-10.1L28.55-10.1Q28.55-6.65 30.15-4.42 31.75-2.2 34.9-2.2L34.9-2.2ZM54.9-17.75Q55.05-18.65 55.05-19.55L55.05-19.55Q55.05-22.05 53.7-23.6L53.7-23.6 55.7-25.35Q56.7-24.55 57.22-23.38 57.75-22.2 57.8-20.9L57.8-20.9Q59.75-23.25 61.87-24.38 64-25.5 66.75-25.5L66.75-25.5Q70.09-25.5 71.97-23.8 73.84-22.1 73.84-18.9L73.84-18.9Q73.84-17.85 73.75-17.25L73.75-17.25 71.34 0 68.5 0 70.8-16.9Q70.9-18 70.9-18.4L70.9-18.4Q70.9-22.8 66.4-22.8L66.4-22.8Q63.9-22.8 62-21.55 60.09-20.3 57.84-17.65L57.84-17.65 55.45 0 52.55 0 54.9-17.75ZM87.59 12.85Q77.44 12.85 77.44 5.05L77.44 5.05Q77.44 3.9 77.54 3.25L77.54 3.25Q77.64 2.35 77.87 1.48 78.09 0.6 78.19 0.25L78.19 0.25Q78.39-0.3 78.54-1.05L78.54-1.05Q77.84-1.7 77.37-2.68 76.89-3.65 76.89-4.8L76.89-4.8Q76.89-5.35 76.94-5.6L76.94-5.6Q77.09-6.95 77.97-8.43 78.84-9.9 80.69-10.7L80.69-10.7Q81.29-10.95 82.02-11.05 82.74-11.15 83.69-11.2L83.69-11.2Q82.54-13.05 82.54-15.55L82.54-15.55Q82.54-16.35 82.59-16.75L82.59-16.75Q82.94-19.45 84.44-21.48 85.94-23.5 88.14-24.55 90.34-25.6 92.79-25.6L92.79-25.6Q94.59-25.6 96.19-24.85L96.19-24.85 104.24-24.9 103.89-22.35 99.49-22.6Q100.99-20.65 100.99-18.05L100.99-18.05Q100.99-17.05 100.89-16.55L100.89-16.55Q100.39-12.5 97.59-10.23 94.79-7.95 90.74-7.95L90.74-7.95Q88.09-7.95 86.19-9.05L86.19-9.05 84.29-9.1Q83.09-9.1 82.64-8.9L82.64-8.9Q81.74-8.75 80.82-7.78 79.89-6.8 79.69-5.35L79.69-5.35Q79.49-3.8 80.49-3.2 81.49-2.6 83.59-2.6L83.59-2.6 87.09-2.7 91.04-2.8Q95.69-2.8 98.34-1.15 100.99 0.5 100.99 3.75L100.99 3.75Q100.99 4.45 100.94 4.8L100.94 4.8Q100.39 9 96.62 10.93 92.84 12.85 87.59 12.85L87.59 12.85ZM90.89-10.55Q94.24-10.55 96.17-12.63 98.09-14.7 98.09-17.85L98.09-17.85Q98.09-20.25 96.67-21.58 95.24-22.9 92.69-22.9L92.69-22.9Q89.44-22.9 87.42-20.8 85.39-18.7 85.39-15.4L85.39-15.4Q85.39-13.05 86.89-11.8 88.39-10.55 90.89-10.55L90.89-10.55ZM87.64 10.15Q92.04 10.15 94.84 8.85 97.64 7.55 98.04 4.6L98.04 4.6Q98.09 4.35 98.09 3.95L98.09 3.95Q98.09 1.35 95.87 0.63 93.64-0.1 90.94-0.1L90.94-0.1Q88.64-0.1 86.74 0L86.74 0 84.64 0.05Q82.19 0.05 80.89-0.2L80.89-0.2 80.49 3.2Q80.39 4.3 80.39 4.75L80.39 4.75Q80.39 7.85 82.07 9 83.74 10.15 87.64 10.15L87.64 10.15ZM118.44-13.5L126.04 0 122.94 0 116.44-11.3Q115.59-12.5 113.09-12.5L113.09-12.5 110.84-12.5 109.19 0 106.29 0 111.09-36.3 113.99-36.3 111.24-15.2 112.89-15.2Q114.44-15.2 115.52-15.33 116.59-15.45 117.39-15.85L117.39-15.85Q119.19-16.7 120.72-18.65 122.24-20.6 123.17-22.58 124.09-24.55 124.19-25.3L124.19-25.3 126.84-25.1Q126.59-23.4 125.12-20.8 123.64-18.2 121.77-16.07 119.89-13.95 118.44-13.5L118.44-13.5ZM138.99 0.5Q134.59 0.5 132.24-2.48 129.89-5.45 129.89-10.05L129.89-10.05Q129.89-11.25 130.04-12.45L130.04-12.45Q130.54-16.25 132.36-19.2 134.19-22.15 137.09-23.78 139.99-25.4 143.59-25.4L143.59-25.4Q146.29-25.4 149.44-24.95L149.44-24.95 152.39-24.95 150.04-7.1Q149.94-5.9 149.94-5.35L149.94-5.35Q149.94-2.7 151.14-1.2L151.14-1.2 149.14 0.35Q148.24-0.5 147.59-1.98 146.94-3.45 147.04-4.25L147.04-4.25Q145.59-2.15 143.41-0.83 141.24 0.5 138.99 0.5L138.99 0.5ZM139.14-2.2Q141.44-2.2 143.31-3.33 145.19-4.45 146.29-6.35L146.29-6.35Q147.29-7.8 147.44-9.5L147.44-9.5 149.24-22.5 146.24-22.6 143.34-22.7Q139.04-22.7 136.29-19.78 133.54-16.85 132.94-12.25L132.94-12.25Q132.79-11.15 132.79-10.1L132.79-10.1Q132.79-6.65 134.39-4.42 135.99-2.2 139.14-2.2L139.14-2.2ZM161.84-36.3L164.73-36.3 162.73-21.4Q164.53-23.5 166.61-24.5 168.69-25.5 171.28-25.5L171.28-25.5Q174.78-25.5 176.53-23.78 178.28-22.05 178.28-18.9L178.28-18.9Q178.28-18.45 178.19-17.25L178.19-17.25 175.94 0 172.98 0 175.24-16.9Q175.34-17.8 175.34-18.2L175.34-18.2Q175.34-20.35 174.23-21.53 173.13-22.7 170.88-22.7L170.88-22.7Q168.53-22.7 166.51-21.43 164.48-20.15 162.34-17.65L162.34-17.65 159.94 0 157.03 0 161.84-36.3ZM197.83 0L202.33-34.2 205.23-34.2 201.08-2.8 217.93-2.8 217.53 0 197.83 0ZM231.83 0.5Q228.68 0.5 226.33-0.85 223.98-2.2 222.7-4.67 221.43-7.15 221.43-10.35L221.43-10.35Q221.43-11.4 221.58-12.6L221.58-12.6Q222.03-16.35 223.93-19.28 225.83-22.2 228.7-23.85 231.58-25.5 234.98-25.5L234.98-25.5Q238.08-25.5 240.43-24.1 242.78-22.7 244.08-20.23 245.38-17.75 245.38-14.5L245.38-14.5Q245.38-13.5 245.23-12.35L245.23-12.35Q244.73-8.6 242.85-5.68 240.98-2.75 238.1-1.13 235.23 0.5 231.83 0.5L231.83 0.5ZM231.93-2.2Q235.98-2.2 238.85-5.1 241.73-8 242.38-12.65L242.38-12.65Q242.53-13.65 242.53-14.55L242.53-14.55Q242.53-18.3 240.48-20.55 238.43-22.8 234.93-22.8L234.93-22.8Q232.23-22.8 229.98-21.45 227.73-20.1 226.28-17.73 224.83-15.35 224.43-12.3L224.43-12.3Q224.28-11.35 224.28-10.4L224.28-10.4Q224.28-6.65 226.33-4.42 228.38-2.2 231.93-2.2L231.93-2.2ZM261.88-13.5L269.48 0 266.38 0 259.88-11.3Q259.03-12.5 256.53-12.5L256.53-12.5 254.28-12.5 252.63 0 249.73 0 254.53-36.3 257.43-36.3 254.68-15.2 256.33-15.2Q257.88-15.2 258.95-15.33 260.03-15.45 260.83-15.85L260.83-15.85Q262.63-16.7 264.15-18.65 265.68-20.6 266.6-22.58 267.53-24.55 267.63-25.3L267.63-25.3 270.28-25.1Q270.03-23.4 268.55-20.8 267.08-18.2 265.2-16.07 263.33-13.95 261.88-13.5L261.88-13.5ZM282.42 0.5Q278.02 0.5 275.67-2.48 273.32-5.45 273.32-10.05L273.32-10.05Q273.32-11.25 273.47-12.45L273.47-12.45Q273.97-16.25 275.8-19.2 277.62-22.15 280.52-23.78 283.42-25.4 287.02-25.4L287.02-25.4Q289.72-25.4 292.87-24.95L292.87-24.95 295.82-24.95 293.47-7.1Q293.37-5.9 293.37-5.35L293.37-5.35Q293.37-2.7 294.57-1.2L294.57-1.2 292.57 0.35Q291.67-0.5 291.02-1.98 290.37-3.45 290.47-4.25L290.47-4.25Q289.02-2.15 286.85-0.83 284.67 0.5 282.42 0.5L282.42 0.5ZM282.57-2.2Q284.87-2.2 286.75-3.33 288.62-4.45 289.72-6.35L289.72-6.35Q290.72-7.8 290.87-9.5L290.87-9.5 292.67-22.5 289.67-22.6 286.77-22.7Q282.47-22.7 279.72-19.78 276.97-16.85 276.37-12.25L276.37-12.25Q276.22-11.15 276.22-10.1L276.22-10.1Q276.22-6.65 277.82-4.42 279.42-2.2 282.57-2.2L282.57-2.2ZM300.47 0L305.27-36.3 308.17-36.3 303.37 0 300.47 0ZM310.27 3.3Q311.42 2.2 311.87 1.2L311.87 1.2Q312.17 0.6 312.24-0.18 312.32-0.95 312.34-1.7 312.37-2.45 312.37-2.75L312.37-2.75Q312.42-3.45 312.87-3.85 313.32-4.25 314.02-4.25L314.02-4.25Q314.82-4.25 315.19-3.7 315.57-3.15 315.47-2.45L315.47-2.45Q315.27-0.8 315.02 0.25 314.77 1.3 314.32 2.25L314.32 2.25Q313.47 3.75 311.57 5.05L311.57 5.05 310.27 3.3ZM367.76-17.6L367.26-13.7Q366.71-9.5 364.36-6.25 362.01-3 358.59-1.23 355.16 0.55 351.41 0.55L351.41 0.55Q344.71 0.55 341.04-3.25 337.36-7.05 337.36-13.5L337.36-13.5Q337.36-15.2 337.56-16.65L337.56-16.65Q338.21-21.75 340.96-25.9 343.71-30.05 347.84-32.45 351.96-34.85 356.61-34.85L356.61-34.85Q359.26-34.85 361.71-33.93 364.16-33 365.56-31.25 366.96-29.5 366.66-27.2L366.66-27.2 364.01-27.35Q364.21-28.9 363.06-29.95 361.91-31 360.06-31.53 358.21-32.05 356.41-32.05L356.41-32.05Q352.51-32.05 349.04-29.93 345.56-27.8 343.26-24.2 340.96-20.6 340.41-16.35L340.41-16.35Q340.21-14.45 340.21-13.7L340.21-13.7Q340.21-8.4 343.19-5.33 346.16-2.25 351.71-2.25L351.71-2.25Q354.56-2.25 357.36-3.73 360.16-5.2 362.09-7.73 364.01-10.25 364.41-13.3L364.41-13.3 364.61-14.8 352.81-14.8 353.21-17.6 367.76-17.6ZM380.56 0.5Q376.16 0.5 373.81-2.48 371.46-5.45 371.46-10.05L371.46-10.05Q371.46-11.25 371.61-12.45L371.61-12.45Q372.11-16.25 373.94-19.2 375.76-22.15 378.66-23.78 381.56-25.4 385.16-25.4L385.16-25.4Q387.86-25.4 391.01-24.95L391.01-24.95 393.96-24.95 391.61-7.1Q391.51-5.9 391.51-5.35L391.51-5.35Q391.51-2.7 392.71-1.2L392.71-1.2 390.71 0.35Q389.81-0.5 389.16-1.98 388.51-3.45 388.61-4.25L388.61-4.25Q387.16-2.15 384.99-0.83 382.81 0.5 380.56 0.5L380.56 0.5ZM380.71-2.2Q383.01-2.2 384.89-3.33 386.76-4.45 387.86-6.35L387.86-6.35Q388.86-7.8 389.01-9.5L389.01-9.5 390.81-22.5 387.81-22.6 384.91-22.7Q380.61-22.7 377.86-19.78 375.11-16.85 374.51-12.25L374.51-12.25Q374.36-11.15 374.36-10.1L374.36-10.1Q374.36-6.65 375.96-4.42 377.56-2.2 380.71-2.2L380.71-2.2ZM396.21 10.6Q397.46 10.6 398.58 10.3 399.71 10 400.46 9.45L400.46 9.45Q401.21 9.05 401.86 8.28 402.51 7.5 402.96 6.55L402.96 6.55 405.61 0.65 398.41-25.15 401.41-25.15 407.21-3.05 416.51-25.15 419.56-25.15 405.41 7.55Q404.21 10.25 402.11 11.7L402.11 11.7Q399.81 13.05 396.41 13.05L396.41 13.05 396.21 10.6ZM429.96 0.5Q425.56 0.5 423.21-2.48 420.86-5.45 420.86-10.05L420.86-10.05Q420.86-11.25 421.01-12.45L421.01-12.45Q421.51-16.25 423.33-19.2 425.16-22.15 428.06-23.78 430.96-25.4 434.56-25.4L434.56-25.4Q437.26-25.4 440.41-24.95L440.41-24.95 443.36-24.95 441.01-7.1Q440.91-5.9 440.91-5.35L440.91-5.35Q440.91-2.7 442.11-1.2L442.11-1.2 440.11 0.35Q439.21-0.5 438.56-1.98 437.91-3.45 438.01-4.25L438.01-4.25Q436.56-2.15 434.38-0.83 432.21 0.5 429.96 0.5L429.96 0.5ZM430.11-2.2Q432.41-2.2 434.28-3.33 436.16-4.45 437.26-6.35L437.26-6.35Q438.26-7.8 438.41-9.5L438.41-9.5 440.21-22.5 437.21-22.6 434.31-22.7Q430.01-22.7 427.26-19.78 424.51-16.85 423.91-12.25L423.91-12.25Q423.76-11.15 423.76-10.1L423.76-10.1Q423.76-6.65 425.36-4.42 426.96-2.2 430.11-2.2L430.11-2.2ZM492.9-17.6L492.4-13.7Q491.85-9.5 489.5-6.25 487.15-3 483.73-1.23 480.3 0.55 476.55 0.55L476.55 0.55Q469.85 0.55 466.18-3.25 462.5-7.05 462.5-13.5L462.5-13.5Q462.5-15.2 462.7-16.65L462.7-16.65Q463.35-21.75 466.1-25.9 468.85-30.05 472.98-32.45 477.1-34.85 481.75-34.85L481.75-34.85Q484.4-34.85 486.85-33.93 489.3-33 490.7-31.25 492.1-29.5 491.8-27.2L491.8-27.2 489.15-27.35Q489.35-28.9 488.2-29.95 487.05-31 485.2-31.53 483.35-32.05 481.55-32.05L481.55-32.05Q477.65-32.05 474.18-29.93 470.7-27.8 468.4-24.2 466.1-20.6 465.55-16.35L465.55-16.35Q465.35-14.45 465.35-13.7L465.35-13.7Q465.35-8.4 468.33-5.33 471.3-2.25 476.85-2.25L476.85-2.25Q479.7-2.25 482.5-3.73 485.3-5.2 487.23-7.73 489.15-10.25 489.55-13.3L489.55-13.3 489.75-14.8 477.95-14.8 478.35-17.6 492.9-17.6ZM496.9 0L501.7-36.3 504.6-36.3 499.8 0 496.9 0ZM517.85 0.5Q514.7 0.5 512.35-0.85 510-2.2 508.72-4.67 507.45-7.15 507.45-10.35L507.45-10.35Q507.45-11.4 507.6-12.6L507.6-12.6Q508.05-16.35 509.95-19.28 511.85-22.2 514.72-23.85 517.6-25.5 521-25.5L521-25.5Q524.1-25.5 526.45-24.1 528.8-22.7 530.1-20.23 531.4-17.75 531.4-14.5L531.4-14.5Q531.4-13.5 531.25-12.35L531.25-12.35Q530.75-8.6 528.87-5.68 527-2.75 524.12-1.13 521.25 0.5 517.85 0.5L517.85 0.5ZM517.95-2.2Q522-2.2 524.87-5.1 527.75-8 528.4-12.65L528.4-12.65Q528.55-13.65 528.55-14.55L528.55-14.55Q528.55-18.3 526.5-20.55 524.45-22.8 520.95-22.8L520.95-22.8Q518.25-22.8 516-21.45 513.75-20.1 512.3-17.73 510.85-15.35 510.45-12.3L510.45-12.3Q510.3-11.35 510.3-10.4L510.3-10.4Q510.3-6.65 512.35-4.42 514.4-2.2 517.95-2.2L517.95-2.2ZM544.09 0.5Q541.59 0.5 539.39 0.2L539.39 0.2Q537.09-0.1 535.84-0.5L535.84-0.5 540.49-36.3 543.39-36.3 541.44-21.7Q542.89-23.6 544.94-24.5 546.99-25.4 549.19-25.4L549.19-25.4Q553.34-25.4 555.72-22.53 558.09-19.65 558.09-14.85L558.09-14.85Q558.09-13.65 557.94-12.3L557.94-12.3Q557.19-6.7 553.74-3.1 550.29 0.5 544.09 0.5L544.09 0.5ZM544.09-2.2Q549.19-2.2 551.82-5.08 554.44-7.95 555.04-12.55L555.04-12.55Q555.19-13.85 555.19-14.9L555.19-14.9Q555.19-18.6 553.49-20.65 551.79-22.7 548.99-22.7L548.99-22.7Q547.69-22.7 546.44-22.25 545.19-21.8 544.14-21.05L544.14-21.05Q541.44-19.45 540.79-16.3L540.79-16.3 538.94-2.65 541.44-2.35Q542.64-2.2 544.09-2.2L544.09-2.2ZM571.14 0.5Q566.74 0.5 564.39-2.48 562.04-5.45 562.04-10.05L562.04-10.05Q562.04-11.25 562.19-12.45L562.19-12.45Q562.69-16.25 564.51-19.2 566.34-22.15 569.24-23.78 572.14-25.4 575.74-25.4L575.74-25.4Q578.44-25.4 581.59-24.95L581.59-24.95 584.54-24.95 582.19-7.1Q582.09-5.9 582.09-5.35L582.09-5.35Q582.09-2.7 583.29-1.2L583.29-1.2 581.29 0.35Q580.39-0.5 579.74-1.98 579.09-3.45 579.19-4.25L579.19-4.25Q577.74-2.15 575.57-0.83 573.39 0.5 571.14 0.5L571.14 0.5ZM571.29-2.2Q573.59-2.2 575.47-3.33 577.34-4.45 578.44-6.35L578.44-6.35Q579.44-7.8 579.59-9.5L579.59-9.5 581.39-22.5 578.39-22.6 575.49-22.7Q571.19-22.7 568.44-19.78 565.69-16.85 565.09-12.25L565.09-12.25Q564.94-11.15 564.94-10.1L564.94-10.1Q564.94-6.65 566.54-4.42 568.14-2.2 571.29-2.2L571.29-2.2ZM589.19 0L593.99-36.3 596.89-36.3 592.09 0 589.19 0Z" opacity="1" transform="matrix(1,0,0,1,0,0)" fill="#5e2f8d" class="slogan-text-1" data-fill-palette-color="secondary" id="text-1"></path></svg></g></svg></g></svg></g></svg></g><g></g></svg></g><defs></defs></svg><rect width="395.52" height="157.950007290678" fill="none" stroke="none" visibility="hidden"></rect></g></svg></g></svg>